<svg xmlns="http://www.w3.org/2000/svg" width="500" height="500" style="width:100%;height:100%;transform:translate3d(0,0,0);content-visibility:visible" viewBox="0 0 500 500"><defs><clipPath id="a"><path d="M0 0h500v500H0z"/></clipPath><clipPath id="e"><path d="M0 0h500v500H0z"/></clipPath><clipPath id="d"><path d="M0 0h500v500H0z"/></clipPath><clipPath id="c"><path d="M0 0h500v500H0z"/></clipPath><clipPath id="b"><path d="M0 0h500v500H0z"/></clipPath></defs><g clip-path="url(#a)"><g clip-path="url(#b)" style="display:none"><g class="primary design" style="display:none"><path class="primary"/></g><g class="primary design" style="display:none"><path class="primary"/></g><g class="primary design" style="display:none"><path class="primary"/></g></g><g clip-path="url(#c)" style="display:none"><g class="primary design" style="display:none"><path class="primary"/></g><g class="primary design" style="display:none"><path class="primary"/></g><g class="primary design" style="display:none"><path class="primary"/></g></g><g clip-path="url(#d)" style="display:block"><g class="primary design" style="display:block"><path fill="#121330" d="M395.249 166.68h-40.536c-11.81 0-21.392 9.582-21.392 21.392v228.006c0 11.81 9.582 21.392 21.392 21.392h40.536c11.81 0 21.392-9.582 21.392-21.392V188.072c0-11.81-9.582-21.392-21.392-21.392z" class="primary"/></g><g class="primary design" style="display:block"><path fill="#121330" d="M267.206 83.36h-34.412c-13.497 0-24.454 10.936-24.454 24.454v305.202c0 13.497 10.957 24.454 24.454 24.454h34.412c13.497 0 24.454-10.957 24.454-24.454V107.814c0-13.518-10.957-24.454-24.454-24.454z" class="primary"/></g><g class="primary design" style="display:block"><path fill="#121330" d="M148.891 250H101.15c-9.832 0-17.789 7.957-17.789 17.789V419.68c0 9.832 7.957 17.789 17.789 17.789h47.742c9.832 0 17.789-7.957 17.789-17.789V267.79c0-9.832-7.957-17.789-17.789-17.789z" class="primary"/></g></g><g clip-path="url(#e)" style="display:none"><g class="primary design" style="display:none"><path class="primary"/></g><g class="primary design" style="display:none"><path class="primary"/></g><g class="primary design" style="display:none"><path class="primary"/></g></g></g></svg>