<svg xmlns="http://www.w3.org/2000/svg" width="500" height="500" style="width:100%;height:100%;transform:translate3d(0,0,0);content-visibility:visible" viewBox="0 0 500 500"><defs><clipPath id="g"><path d="M0 0h500v500H0z"/></clipPath><clipPath id="l"><path d="M0 0h500v500H0z"/></clipPath><clipPath id="j"><path d="M0 0h500v500H0z"/></clipPath><clipPath id="h"><path d="M0 0h500v500H0z"/></clipPath><filter id="a" width="100%" height="100%" x="0%" y="0%" filterUnits="objectBoundingBox"><feComponentTransfer in="SourceGraphic"><feFuncA tableValues="1.0 0.0" type="table"/></feComponentTransfer></filter><filter id="c" width="100%" height="100%" x="0%" y="0%" filterUnits="objectBoundingBox"><feComponentTransfer in="SourceGraphic"><feFuncA tableValues="1.0 0.0" type="table"/></feComponentTransfer></filter><filter id="e" width="100%" height="100%" x="0%" y="0%" filterUnits="objectBoundingBox"><feComponentTransfer in="SourceGraphic"><feFuncA tableValues="1.0 0.0" type="table"/></feComponentTransfer></filter><mask id="m" mask-type="alpha"><g filter="url(#a)"><path fill="#fff" d="M0 0h500v500H0z" opacity="0"/><use xmlns:ns1="http://www.w3.org/1999/xlink" ns1:href="#b"/></g></mask><mask id="k" mask-type="alpha"><g filter="url(#c)"><path fill="#fff" d="M0 0h500v500H0z" opacity="0"/><use xmlns:ns2="http://www.w3.org/1999/xlink" ns2:href="#d"/></g></mask><mask id="i" mask-type="alpha"><g filter="url(#e)"><path fill="#fff" d="M0 0h500v500H0z" opacity="0"/><use xmlns:ns3="http://www.w3.org/1999/xlink" ns3:href="#f"/></g></mask><g id="b" fill-opacity="0" stroke-linecap="round" stroke-linejoin="round" class="primary design" style="display:none"><path class="primary"/><path class="primary"/><path class="primary"/></g><g id="d" class="primary design" style="display:none"><path fill-opacity="0" stroke-linecap="round" stroke-linejoin="round" class="primary"/></g><g id="f" fill-opacity="0" stroke-linecap="round" stroke-linejoin="round" class="primary design" style="display:none"><path class="primary"/><path class="primary"/><path class="primary"/></g></defs><g clip-path="url(#g)"><g clip-path="url(#h)" style="display:none"><g class="primary design" mask="url(#i)" style="display:none"><path class="primary"/><path fill="none" class="primary"/></g><g class="primary design" style="display:none"><path class="primary"/></g><g class="primary design" style="display:none"><path class="primary"/></g></g><g clip-path="url(#j)" style="display:block"><g class="primary design" mask="url(#k)" style="display:none"><path class="primary"/><path fill="none" class="primary"/></g><g class="primary design" style="display:none"><path fill="#121330" d="M250 41.7C135.018 41.7 41.7 135.018 41.7 250c0 114.982 93.318 208.3 208.3 208.3 114.982 0 208.3-93.318 208.3-208.3 0-114.982-93.318-208.3-208.3-208.3zm98.11 190.178-83.32 83.32c-4.167 4.166-9.374 6.249-14.79 6.249-5.416 0-10.623-2.083-14.79-6.25l-83.32-83.32c-8.123-8.123-8.123-21.246 0-29.37 8.124-8.123 21.456-8.123 29.58 0L250 271.039l68.53-68.53c8.124-8.124 21.456-8.124 29.58 0 8.123 8.123 8.123 21.246 0 29.37z" class="primary"/></g><g class="primary design" style="display:block"><path fill="#121330" d="M250 41.7C135.018 41.7 41.7 135.018 41.7 250c0 114.982 93.318 208.3 208.3 208.3 114.982 0 208.3-93.318 208.3-208.3 0-114.982-93.318-208.3-208.3-208.3zm98.11 190.178-83.32 83.32c-4.167 4.166-9.374 6.249-14.79 6.249-5.416 0-10.623-2.083-14.79-6.25l-83.32-83.32c-8.123-8.123-8.123-21.246 0-29.37 8.124-8.123 21.456-8.123 29.58 0L250 271.039l68.53-68.53c8.124-8.124 21.456-8.124 29.58 0 8.123 8.123 8.123 21.246 0 29.37z" class="primary"/></g></g><g clip-path="url(#l)" style="display:none"><g class="primary design" mask="url(#m)" style="display:none"><path class="primary"/><path fill="none" class="primary"/></g><g class="primary design" style="display:none"><path class="primary"/></g></g></g></svg>